<svg width="52" height="52" viewBox="0 0 52 52" fill="none" xmlns="http://www.w3.org/2000/svg">
<path id="Todo-logo-box" fill-rule="evenodd" clip-rule="evenodd" d="M3.12 0C1.39687 0 0 1.39687 0 3.12L1.52588e-05 3.12986V22.88C1.52588e-05 24.6031 1.39689 26 3.12002 26C4.84314 26 6.24002 24.6031 6.24002 22.88V6.24H22.88C24.6031 6.24 26 4.84313 26 3.12C26 1.39687 24.6031 0 22.88 0H3.12002H3.12ZM48.875 52C48.8767 52 48.8783 52 48.88 52C48.9877 52 49.0941 51.9945 49.199 51.9839C50.7723 51.8241 52 50.4954 52 48.88M48.875 52H29.12C27.3969 52 26 50.6031 26 48.88C26 47.1569 27.3969 45.76 29.12 45.76H45.76V29.12C45.76 27.3969 47.1568 26 48.88 26C50.6031 26 52 27.3969 52 29.12V48.869" fill="white"/>
<rect id="Rectangle 9" x="23.5" y="37.5" width="25" height="6" transform="rotate(-90 23.5 37.5)" fill="white"/>
<rect id="Rectangle 10" x="14" y="22" width="25" height="6" fill="white"/>
</svg>
