<svg width="60" height="75" viewBox="0 0 60 75" fill="none" xmlns="http://www.w3.org/2000/svg">
<rect width="60" height="75" fill="black" fill-opacity="0.41"/>
<path d="M5 17C5 15.8954 5.89543 15 7 15H9C10.1046 15 11 15.8954 11 17V73C11 74.1046 10.1046 75 9 75H7C5.89543 75 5 74.1046 5 73V17Z" fill="#808080"/>
<path d="M7 75C5.89543 75 5 74.1046 5 73V69H55V73C55 74.1046 54.1046 75 53 75H7Z" fill="#808080"/>
<path d="M49 17C49 15.8954 49.8954 15 51 15H53C54.1046 15 55 15.8954 55 17V73C55 74.1046 54.1046 75 53 75H51C49.8954 75 49 74.1046 49 73V17Z" fill="#808080"/>
<path d="M0 7C0 5.89543 0.895431 5 2 5H58C59.1046 5 60 5.89543 60 7V10C60 10.5523 59.5523 11 59 11H0.999999C0.447714 11 0 10.5523 0 10V7Z" fill="#808080"/>
<path d="M22 5C22 2.23858 24.2386 0 27 0H33C35.7614 0 38 2.23858 38 5H22Z" fill="#808080"/>
<path d="M38.2132 29L42.4558 33.2426L21.2426 54.4558L17 50.2132L38.2132 29Z" fill="#808080"/>
<path d="M17 33.2426L21.2426 29L42.4558 50.2132L38.2132 54.4558L17 33.2426Z" fill="#808080"/>
</svg>
