<svg width="85" height="100" viewBox="0 0 85 100" fill="none" xmlns="http://www.w3.org/2000/svg">
<g id="note-logo">
<path d="M0 6C0 2.68629 2.68629 0 6 0H54C57.3137 0 60 2.68629 60 6C60 9.31371 57.3137 12 54 12H12V88H73V29C73 25.6863 75.6863 23 79 23C82.3137 23 85 25.6863 85 29V92C85 92.3407 84.9716 92.6748 84.917 93C84.9716 93.3252 85 93.6593 85 94C85 97.3137 82.3137 100 79 100H6C2.68629 100 0 97.3137 0 94V6Z" fill="white"/>
<path d="M21 40C19.3431 40 18 38.6569 18 37C18 35.3431 19.3431 34 21 34H65C66.6569 34 68 35.3431 68 37C68 38.6569 66.6569 40 65 40H21Z" fill="white"/>
<path d="M20 26C18.3431 26 17 24.6569 17 23C17 21.3431 18.3431 20 20 20H64C65.6569 20 67 21.3431 67 23C67 24.6569 65.6569 26 64 26H20Z" fill="white"/>
<path d="M18 50C18 51.6569 19.3431 53 21 53H65C66.6569 53 68 51.6569 68 50C68 48.3431 66.6569 47 65 47H21C19.3431 47 18 48.3431 18 50Z" fill="white"/>
<path d="M21 66C19.3431 66 18 64.6569 18 63C18 61.3431 19.3431 60 21 60H65C66.6569 60 68 61.3431 68 63C68 64.6569 66.6569 66 65 66H21Z" fill="white"/>
<path d="M18 77C18 78.6569 19.3431 80 21 80H35C36.6569 80 38 78.6569 38 77C38 75.3431 36.6569 74 35 74H21C19.3431 74 18 75.3431 18 77Z" fill="white"/>
</g>
</svg>
