<svg width="20" height="20" viewBox="0 0 20 20" fill="none" xmlns="http://www.w3.org/2000/svg">
<g clip-path="url(#clip0_3_8)">
<path d="M15.1825 0.182732C15.2405 0.124528 15.3095 0.0783496 15.3854 0.0468416C15.4613 0.0153335 15.5427 -0.00088501 15.625 -0.00088501C15.7072 -0.00088501 15.7886 0.0153335 15.8645 0.0468416C15.9404 0.0783496 16.0094 0.124528 16.0675 0.182732L19.8175 3.93273C19.8757 3.99079 19.9218 4.05976 19.9533 4.13569C19.9849 4.21162 20.0011 4.29302 20.0011 4.37523C20.0011 4.45744 19.9849 4.53884 19.9533 4.61477C19.9218 4.69071 19.8757 4.75968 19.8175 4.81773L7.31745 17.3177C7.25747 17.3773 7.18603 17.4241 7.10745 17.4552L0.857452 19.9552C0.743872 20.0007 0.619447 20.0118 0.499602 19.9872C0.379756 19.9627 0.269761 19.9034 0.183253 19.8169C0.0967449 19.7304 0.0375281 19.6204 0.0129437 19.5006C-0.0116406 19.3807 -0.000511193 19.2563 0.0449521 19.1427L2.54495 12.8927C2.57611 12.8142 2.62289 12.7427 2.68245 12.6827L15.1825 0.182732V0.182732ZM14.0087 3.12523L16.875 5.99148L18.4912 4.37523L15.625 1.50898L14.0087 3.12523ZM15.9912 6.87523L13.125 4.00898L4.99995 12.134V12.5002H5.62495C5.79071 12.5002 5.94968 12.5661 6.06689 12.6833C6.1841 12.8005 6.24995 12.9595 6.24995 13.1252V13.7502H6.87495C7.04071 13.7502 7.19968 13.8161 7.31689 13.9333C7.4341 14.0505 7.49995 14.2095 7.49995 14.3752V15.0002H7.8662L15.9912 6.87523V6.87523ZM3.78995 13.344L3.65745 13.4765L1.74745 18.2527L6.5237 16.3427L6.6562 16.2102C6.53698 16.1657 6.43419 16.0858 6.3616 15.9813C6.289 15.8767 6.25005 15.7525 6.24995 15.6252V15.0002H5.62495C5.45919 15.0002 5.30022 14.9344 5.18301 14.8172C5.0658 14.7 4.99995 14.541 4.99995 14.3752V13.7502H4.37495C4.24768 13.7501 4.12346 13.7112 4.01892 13.6386C3.91438 13.566 3.8345 13.4632 3.78995 13.344V13.344Z" fill="#8B8B8B" fill-opacity="0.9"/>
</g>
<defs>
<clipPath id="clip0_3_8">
<rect width="20" height="20" fill="white"/>
</clipPath>
</defs>
</svg>
