<svg width="100" height="100" viewBox="0 0 100 100" fill="none" xmlns="http://www.w3.org/2000/svg">
<rect width="100" height="100" fill="black" fill-opacity="0.41"/>
<path id="Todo-logo-tick" fill-rule="evenodd" clip-rule="evenodd" d="M39.2132 71.7107C41.1658 73.6633 44.3316 73.6633 46.2843 71.7107L47.6985 70.2965L88.7107 29.2843C90.6633 27.3316 90.6633 24.1658 88.7107 22.2132L87.2965 20.799C85.3438 18.8464 82.178 18.8464 80.2254 20.799L42.7487 58.2756L30.0208 45.5477C28.0682 43.5951 24.9024 43.5951 22.9497 45.5477L21.5355 46.9619C19.5829 48.9146 19.5829 52.0804 21.5355 54.033L37.799 70.2965L39.2132 71.7107Z" fill="white"/>
<path id="Todo-logo-box" fill-rule="evenodd" clip-rule="evenodd" d="M6 0C2.68629 0 0 2.68629 0 6V44C0 47.3137 2.68629 50 6 50C9.31371 50 12 47.3137 12 44V12H44C47.3137 12 50 9.31371 50 6C50 2.68629 47.3137 0 44 0H6ZM94 100H56C52.6863 100 50 97.3137 50 94C50 90.6863 52.6863 88 56 88H88V56C88 52.6863 90.6863 50 94 50C97.3137 50 100 52.6863 100 56V94C100 97.3137 97.3137 100 94 100Z" fill="#FBFBFB"/>
</svg>
